<svg width="34" height="35" viewBox="0 0 34 35" fill="none" xmlns="http://www.w3.org/2000/svg">
<path d="M17.7806 12.7516L17.7822 12.8393L13.5227 19.1478C12.8328 19.1157 12.1409 19.2393 11.4837 19.515C11.1976 19.6335 10.9245 19.7821 10.6688 19.9586L2 16.3648C2 16.3648 2 19.6924 2 22.3639L8.61296 25.1458C8.93936 26.6586 9.9621 27.9852 11.4647 28.6231C12.6468 29.1237 13.9755 29.1257 15.159 28.6285C16.3424 28.1312 17.284 27.1754 17.7767 25.971C18.0396 25.3294 18.1664 24.6384 18.1489 23.9433L24.2379 19.5038L24.3876 19.5066C28.0351 19.5066 31 16.4752 31 12.7516C31 9.02809 28.0405 6.00776 24.3876 6C20.7416 6 17.7752 9.02809 17.7752 12.7516H17.7806ZM16.7578 25.5351C15.9669 27.4761 13.7843 28.3895 11.8873 27.5837C11.0456 27.223 10.3632 26.5594 9.97027 25.7191L12.1229 26.6287C12.4554 26.7699 12.812 26.8428 13.1722 26.8433C13.5324 26.844 13.8892 26.7722 14.2222 26.6321C14.5552 26.4921 14.8578 26.2865 15.1128 26.0273C15.3679 25.7679 15.5702 25.4599 15.7085 25.1207C15.9883 24.4356 15.99 23.6652 15.713 22.9787C15.4361 22.2923 14.9033 21.746 14.2314 21.4599L12.001 20.5199C12.8594 20.187 13.8354 20.176 14.7483 20.5626C15.6731 20.9524 16.3803 21.6867 16.759 22.6256C17.1375 23.5646 17.1354 24.6 16.7535 25.5351M24.3935 17.2522C23.2247 17.249 22.1048 16.7736 21.2791 15.9302C20.4534 15.0869 19.9892 13.9443 19.9881 12.7528C19.9895 11.5613 20.4538 10.419 21.2795 9.57595C22.1052 8.73285 23.225 8.25765 24.3935 8.25442C25.5624 8.25736 26.6824 8.73243 27.5084 9.57556C28.3342 10.4187 28.7987 11.5611 28.8001 12.7528C28.799 13.9445 28.3347 15.0872 27.5087 15.9307C26.6828 16.774 25.5626 17.2492 24.3935 17.2522ZM21.0925 12.7455C21.0918 11.8503 21.4398 10.9914 22.0599 10.3574C22.6802 9.72362 23.5219 9.36674 24.4001 9.36528C26.2252 9.36528 27.7098 10.8793 27.7098 12.7455C27.7102 13.641 27.3618 14.5001 26.7411 15.1337C26.1206 15.7674 25.2785 16.1238 24.4001 16.1247C23.522 16.1234 22.6803 15.7667 22.06 15.1331C21.4397 14.4995 21.0921 13.6407 21.0925 12.7455Z" fill="white"/>
</svg>
