<svg width="28" height="20" viewBox="0 0 28 20" fill="none" xmlns="http://www.w3.org/2000/svg">
<g id="YouTube_play_buttom_dark_icon_(2013-2017) 1" clip-path="url(#clip0_232_5)">
<g id="Lozenge">
<g id="Group">
<path id="Vector" d="M27.6992 4.27974C27.6992 4.27974 27.4258 2.35207 26.5891 1.50324C25.5281 0.388807 24.3359 0.383331 23.7918 0.317615C19.8816 0.0355835 14.0191 0.0355835 14.0191 0.0355835H14.0082C14.0082 0.0355835 8.1457 0.0355835 4.23555 0.317615C3.6914 0.383331 2.49922 0.388807 1.43828 1.50324C0.601561 2.35207 0.328123 4.27974 0.328123 4.27974C0.328123 4.27974 0.0492172 6.54147 0.0492172 8.80593V10.928C0.0492172 13.1925 0.328123 15.4542 0.328123 15.4542C0.328123 15.4542 0.601561 17.3819 1.43828 18.2307C2.50195 19.3451 3.89648 19.3095 4.51719 19.4273C6.75117 19.6409 14.0137 19.7093 14.0137 19.7093C14.0137 19.7093 19.8816 19.7011 23.7918 19.4163C24.3387 19.3506 25.5281 19.3451 26.5891 18.2307C27.4258 17.3819 27.6992 15.4542 27.6992 15.4542C27.6992 15.4542 27.9781 13.1897 27.9781 10.928V8.80593C27.9781 6.54147 27.6992 4.27974 27.6992 4.27974ZM11.1289 13.4991V5.64061L18.6758 9.58357L11.1289 13.4991Z" fill="white"/>
</g>
</g>
</g>
<defs>
<clipPath id="clip0_232_5">
<rect width="28" height="19.7422" fill="white"/>
</clipPath>
</defs>
</svg>
